<?xml version="1.0" encoding="utf-8"?>
<!-- Generator: Adobe Illustrator 21.0.2, SVG Export Plug-In . SVG Version: 6.00 Build 0)  -->
<svg version="1.1" id="Слой_1" xmlns="http://www.w3.org/2000/svg" xmlns:xlink="http://www.w3.org/1999/xlink" x="0px" y="0px"
	 viewBox="0 0 737.1 400" style="enable-background:new 0 0 737.1 400;" xml:space="preserve">
<style type="text/css">
	.st0{clip-path:url(#SVGID_2_);fill:#fff;}
	.st1{clip-path:url(#SVGID_2_);fill:#fff;}
</style>
<g>
	<defs>
		<rect id="SVGID_1_" x="-52.4" y="-98.6" width="841.9" height="595.3"/>
	</defs>
	<clipPath id="SVGID_2_">
		<use xlink:href="#SVGID_1_"  style="overflow:visible;"/>
	</clipPath>
	<path class="st0" d="M399.9,176.7c-1.9-3-1.5-8.3-1.1-13.4c0.2-2.5,0.4-5.1,0.3-7.5c-0.7-19.6-3.6-34.1-9.5-46.8
		c-11.2-24.6-26.1-40.7-49.7-53.8c-0.6-0.3-1.3-0.7-1.9-0.9c-2-0.9-4.3-1.5-6.6-1.7l-0.6-0.1c-1.2-0.2-2.8-0.4-3.7,1.3
		c-0.4,0.8-0.5,1.7-0.2,2.6c0.9,2.8,5.2,5,5.6,5.2C360,76,378.9,102.4,385,132c0,0,0,0,0,0c-1.2,0.3-2.9,1.3-5.2,2
		c-2.3,0.7-5.1,1.3-8.4,1.7c-3.3,0.4-7,0.6-11.2,0.3c-4.1-0.3-8.6-1-13.3-2.4c-2.4-0.7-4.8-1.4-6.3-2.3c-0.8-0.4-1.5-0.9-2.3-1.7
		l-0.6-0.6c0,0-0.1-0.1-0.2-0.1c-0.1-0.2-0.3-0.3-0.3-0.5c-0.2-0.3-0.2-0.6-0.2-1c0,0,0.2-1,0.4-1.7l0.5-2.2c0.7-3,1.5-6.2,1.9-10.1
		c0.2-1.9,0.1-4.1-0.1-5.8c-0.1-1-0.2-2-0.5-3.1c-0.3-1.2-0.6-2.5-1.9-4.3c-0.3-0.5-0.8-1-1.4-1.5c-0.3-0.2-0.9-0.6-1.2-0.8
		c-0.3-0.2-0.7-0.3-0.9-0.4c-1-0.4-1.7-0.5-2.4-0.6c-1.3-0.2-2.4-0.2-3.7-0.1c-0.6,0.1-1.3,0.1-2,0.3l-1.5,0.4c-1,0.3-1.9,0.6-2.7,1
		c-3.3,1.4-5.9,2.5-8.9,3.6c-2.9,1-5.8,1.9-7.9,1.9c-3.6,0.1-8-3-10.9-8c-3.5-5.1-6.3-10.5-8.5-15.9c-2.2-5.5-4-11-5-16.4
		c-1-5.4-1.7-10.7-1.7-15.7c-0.1-5,0.3-9.7,0.9-13.9c0.6-4.2,1.5-8.1,2.5-11.4c0.1-0.5,0.3-1,0.5-1.5c1.3,0.3,2.6,0.6,4.2,1
		c2.6,0.5,5.6,1.3,8.9,1.8c3.3,0.6,6.9,1.2,10.7,1.6c3.8,0.4,7.9,0.7,12.1,0.8c4.2,0.1,8.4,0.1,12.6,0.4c4.2,0.2,8.4,0.6,12.5,1.5
		c2,0.5,4.1,1,6.2,1.7c2.1,0.6,4.2,1.3,6.1,2.1l3,1.2l2.9,1.4c1.9,0.9,3.7,2,5.5,3.2c1.8,1,3.3,2.5,4.9,3.7c1.5,1.4,3,2.7,4.2,4.2
		c1.2,1.5,2.5,3,3.4,4.6c1.1,1.5,1.9,3.2,2.7,4.9c0.9,1.6,1.3,3.4,1.9,5c0.5,1.7,0.8,3.4,1.2,5c0.2,1.7,0.4,3.3,0.6,4.8
		c0,1.6,0.1,3.1,0.1,4.5c-0.2,2.9-0.3,5.6-0.8,8c-0.5,2.7,1.8,6,3.3,8c1.4,1.9,3,4.2,4.3,6.9c1.2,2.3,2.2,2.4,2.6,2
		c2.9-2.9,2.9-8.1,2.9-8.6c0.1-2,0.3-4.5,0.2-7.3c0.1-2.8-0.1-6-0.3-9.5c-0.2-1.7-0.4-3.6-0.7-5.5c-0.4-1.9-0.8-3.8-1.2-5.8
		c-0.6-2-1.2-4-1.9-6.1c-0.9-2-1.6-4.1-2.7-6.1c-1.1-2-2.2-4.1-3.6-6c-1.3-2-2.9-3.8-4.5-5.6c-1.6-1.8-3.5-3.4-5.3-5
		c-2-1.4-3.8-3.1-6-4.3c-2.1-1.3-4.2-2.6-6.4-3.6l-3.3-1.6l-3.4-1.4c-2.2-1-4.5-1.7-6.8-2.4c-2.3-0.8-4.6-1.4-7-2
		c-4.7-1.1-9.5-1.6-13.9-2c-4.3-0.3-8.6-0.6-12.6-0.9c-3.9-0.3-7.6-0.8-11.1-1.4c-3.4-0.6-6.6-1.4-9.5-2.3c-2.9-0.8-5.4-1.8-7.7-2.7
		c-2.2-1-4.2-1.8-5.7-2.6c-0.3-0.1-0.4-0.3-0.7-0.4c-4.4-3.9-11.6-8.5-13.3-5.5c-1.1,1.9-1.6,4.5-2.5,7.8c-0.6,3-1.5,6.4-2.1,10.4
		c-0.7,4-1.2,8.5-1.5,13.5c-0.3,5-0.3,10.3,0.2,16c0.4,5.7,1.4,11.7,2.8,17.8c1.4,6.1,3.6,12.3,6.3,18.4c2.7,6.1,6,12.2,10,17.8
		c1.9,2.9,4.6,6.2,8,8.7c3.4,2.5,7.9,4.4,12.9,4.3c4.7-0.2,8.1-1.5,11.4-2.6c3.2-1.1,6.6-2.6,9.4-3.6c0.7-0.3,1.3-0.5,1.9-0.6
		l0.2-0.1c0.1,1.4,0.1,2.3,0,3.5c-0.3,2.4-1,5.2-1.8,8l-0.6,2.2c-0.2,0.8-0.4,1.2-0.7,2.7c-0.5,2.6-0.2,5.4,0.8,7.9
		c0.5,1.2,1.1,2.3,1.8,3.4c0.4,0.5,0.8,1,1.3,1.5l0.9,0.9c1.3,1.3,2.8,2.5,4.5,3.6c3.4,2.1,6.2,2.9,8.9,3.9c5.4,1.9,10.7,3.2,15.7,4
		c5,0.8,9.6,1.1,13.6,1.2c4.1,0.1,7.6-0.1,10.5-0.3c1.7-0.1,3.1-0.2,4.4-0.2c0.1,6.7-0.4,13.4-1.7,20.1c-0.8,4.3,1.4,8.7,5.2,10.3
		c0.8,0.3,1.6,0.6,2.7,0.7c3.6,0.5,5.8,0,6.8-1.4C401.2,179.1,400,176.8,399.9,176.7"/>
	<path class="st0" d="M487.5,51.3c-0.5-6.9-1.9-13.8-4.3-20.6c-0.2-0.7-0.5-1.3-0.8-2l0-0.1c-0.4-1-1.3-1.8-2.5-2.1
		c-6.8-1.7-13.3-2.3-20.1-2.2c-7.5,0.3-15.4,1.6-22.5,5.3c-7.1,3.6-13,9.7-16.6,16.6c-3.7,6.9-5.5,14.2-6.6,21.3
		c-1.1,7.1-1.4,14.1-1.2,20.7c0.1,4.9,0.4,9.7,1.1,14.8c0.2,1.7,1.5,3.2,3.2,3.6c2.3,0.6,4.7-0.8,5.3-3.2l0.1-0.3
		c0.3-1.1,0.7-2.4,1.1-3.6c1.8-5.2,4-9.9,6.5-14c2.5-4.1,6.7-10.8,9.3-13.6c8.2-10.5,27.9-24.6,11.9-20c-5,1.5-9.5,4.2-13.4,7.7
		c-0.1,0.1-0.2,0.1-0.2,0.2c-2.4,2.2-5.1,5-7.9,8.5c-2.7,3.5-5.5,7.6-8.1,12.4c-0.1,0.2-0.2,0.5-0.4,0.7c0-4.2,0.3-8.5,0.8-12.8
		c0.9-6.5,2.6-13,5.6-18.8c3-5.8,7.5-10.4,13.3-13.4c5.7-3.1,12.4-4.2,19.1-4.4c5.2-0.1,10.7,0.5,15.7,1.6c2,6,3.1,12.2,3.4,18
		c0.2,5.9-0.7,11.5-2.6,16.2c-0.9,2.4-2.2,4.5-3.4,6.4c-0.7,0.9-1.5,1.8-2.2,2.7c-0.7,0.8-1.3,1.3-2,1.8c-3,2-7,2.9-10.8,3.6
		c-4,0.6-7.5,1.1-10.4,1.6c-3,0.5-4.7,0.7-6.2,1.2c-3.9,1.2-8.8,17.9-5.3,16.6c1.5-0.6,8.6-5.1,14.1-6.3c2.6-0.8,5.9-1.5,10-2.6
		c4-1.1,9.1-2.3,14.3-6.1c1.2-0.9,2.6-2.2,3.5-3.4c0.9-1.2,1.8-2.4,2.7-3.6c1.6-2.6,3.1-5.4,4.1-8.5C487.2,65,488,58.2,487.5,51.3"
		/>
	<polygon class="st1" points="275.3,360.1 275.2,366.8 255.3,366.8 255.3,377.6 273.4,377.6 273.4,384.2 255.3,384.2 255.3,400 
		247.7,400 247.7,360.1 	"/>
	<path class="st1" d="M317.8,391.6h-19.5l-3.5,8.4h-7.9l17.5-39.9h7.9l17.3,39.9h-8.2L317.8,391.6z M315.1,385l-7-16.8l-7.1,16.8
		H315.1z"/>
	<path class="st1" d="M372,400l-6.9-11.8c-0.5,0.1-0.9,0.1-1.4,0.1h-9V400H347v-39.9h16.7c10.3,0,16.2,5,16.2,13.7
		c0,6.3-2.8,10.8-7.9,12.9l8.8,13.2H372z M354.6,381.6h9c5.7,0,8.9-2.5,8.9-7.5c0-4.9-3.2-7.3-8.9-7.3h-9V381.6z"/>
	<polygon class="st1" points="409.6,360.1 422.2,385.7 434.7,360.1 443.5,360.1 443.5,400 436.5,400 436.4,371.5 424.6,395.9 
		419.7,395.9 407.9,371.5 407.9,400 400.8,400 400.8,360.1 	"/>
	<path class="st1" d="M479,366.7c-3.6,0-5.9,1.3-5.9,3.8c0,8.1,21.4,3.7,21.4,18c0,7.5-6.5,11.8-15.3,11.8c-6.4,0-12.6-2.6-16.9-6.4
		l3.2-6.4c4.1,3.6,9.5,5.9,13.8,5.9c4.3,0,6.8-1.6,6.8-4.4c0-8.3-21.4-3.6-21.4-17.8c0-7,6-11.4,14.9-11.4c5.3,0,10.6,1.7,14.4,4.2
		l-3.1,6.6C486.7,368,482.1,366.7,479,366.7"/>
	<path class="st1" d="M19.7,291.9c6.5,21.2,13,42.5,19.5,63.7c11.8-3.6,23.6-7,35.5-10.2c1.4,5.3,2.8,10.5,4.3,15.8
		C61,366,43.3,371.2,25.6,377C17.1,350.7,8.5,324.4,0,298.1C6.5,296,13.1,293.9,19.7,291.9"/>
	<path class="st1" d="M104.1,269.4c6.1,27,12.3,53.9,18.4,80.9c-6.2,1.4-12.4,2.9-18.6,4.4c-6.6-26.9-13.2-53.7-19.8-80.6
		C90.8,272.5,97.5,270.9,104.1,269.4"/>
	<path class="st1" d="M203.2,251.1c0.7,5.1,1.4,10.3,2,15.4c-14.5,2-29,4.4-43.4,6.9c1.2,6.7,2.4,13.4,3.6,20.1
		c13-2.3,26.1-4.4,39.2-6.3c0.7,5.2,1.5,10.3,2.2,15.5c-12.9,1.9-25.8,3.9-38.6,6.2c1.8,10.3,3.7,20.6,5.5,30.9
		c-6.3,1.1-12.5,2.3-18.7,3.5c-5.3-27.1-10.7-54.3-16-81.4C160.3,257.8,181.8,254.2,203.2,251.1"/>
	<path class="st1" d="M299,241.6c0.3,5.2,0.6,10.3,0.9,15.5c-15.9,0.9-31.8,2.2-47.6,3.8c0.6,6,1.2,11.9,1.8,17.9
		c14-1.4,28.1-2.6,42.2-3.5c0.3,5.2,0.7,10.3,1,15.5c-13.9,0.9-27.7,2-41.6,3.4c0.6,6.1,1.2,12.2,1.8,18.3
		c15.6-1.6,31.2-2.8,46.9-3.7c0.3,5.2,0.6,10.3,0.9,15.5c-21.7,1.3-43.5,3.2-65.1,5.7c-3.2-27.5-6.5-54.9-9.7-82.4
		C253.2,244.9,276.1,242.9,299,241.6"/>
	<path class="st1" d="M363.3,254.6c-6.8,0-11.3,2.4-11.2,6.9c0.2,15,47.2,6.7,46.2,36.8c-0.5,16.2-15,24.6-33.5,24.7
		c-13.8,0.1-27.7-4.8-37.6-12.3c2.4-5.2,4.7-10.4,7.2-15.5c9.1,7.3,21.6,11.9,30.6,11.9c7.9,0,12.7-2.8,12.7-7.9
		c0.1-15.9-45.9-6.2-46.9-35.3c-0.6-15,13.2-25.1,34.1-25.2c12.7-0.1,25.3,3.7,34.1,9.3c-2.7,5.1-5.4,10.2-8.1,15.4
		C381.6,257.9,370.4,254.6,363.3,254.6"/>
	<path class="st1" d="M514.6,289.9c-3.2,23.8-24.8,39.4-50.2,37.2c-25.4-2.2-44.1-21.1-43.2-45.2c0.9-24.1,22.6-41.3,50.3-38.9
		C499.2,245.5,517.8,266.1,514.6,289.9 M441.4,283.1c-0.8,14.6,10.5,26.6,24.6,27.8c14.1,1.2,26.9-8.8,28.5-23.3
		c1.6-14.5-9.2-26.9-24.1-28.2C455.3,258.2,442.2,268.5,441.4,283.1"/>
	<path class="st1" d="M566.9,255.7c11.6,19.9,22.4,40,32.6,60.3c3.6-17.4,7.1-34.8,10.7-52.2c6.4,1.3,12.7,2.6,19,4l-17.9,81
		c-5.7-1.3-11.3-2.5-17-3.6c-9.8-20.1-20.3-40.1-31.4-60c-2.9,17.5-5.8,35-8.8,52.5c-6-1-12-2-18-2.9c4.1-27.3,8.2-54.7,12.3-82
		C554.6,253.7,560.7,254.6,566.9,255.7"/>
	<path class="st1" d="M710.7,331.7c5.5,1.7,11,3.4,16.5,5.2c-3.3,10.1-6.6,20.2-9.8,30.3c-10.6,3.3-25,3.4-36.3,0.1
		c-24.5-7.1-39.1-29.4-33.5-52.8c5.6-23.3,30.6-35.9,58.1-27.9c13,3.8,24.9,12.5,31.3,22.3c-5,3.1-10,6.2-15,9.3
		c-4.6-7.4-12.5-13.5-20.9-16c-15.4-4.5-30.2,3.3-33.9,17.4c-3.7,14.2,4.9,28.1,19.5,32.4c5,1.4,11.4,1.5,17.5,0.5
		C706.4,345.6,708.5,338.7,710.7,331.7"/>
</g>
</svg>
