<svg width="738" height="400" viewBox="0 0 738 400" fill="none" xmlns="http://www.w3.org/2000/svg">
<g clip-path="url(#clip0_15_155)">
<mask id="mask0_15_155" style="mask-type:luminance" maskUnits="userSpaceOnUse" x="-53" y="-99" width="843" height="596">
<path d="M789.5 -98.6001H-52.4V496.7H789.5V-98.6001Z" fill="white"/>
</mask>
<g mask="url(#mask0_15_155)">
<path d="M399.9 176.7C398 173.7 398.4 168.4 398.8 163.3C399 160.8 399.2 158.2 399.1 155.8C398.4 136.2 395.5 121.7 389.6 109C378.4 84.3999 363.5 68.2999 339.9 55.1999C339.3 54.8999 338.6 54.4999 338 54.2999C336 53.3999 333.7 52.7999 331.4 52.5999L330.8 52.4999C329.6 52.2999 328 52.0999 327.1 53.7999C326.7 54.5999 326.6 55.4999 326.9 56.3999C327.8 59.1999 332.1 61.3999 332.5 61.5999C360 75.9999 378.9 102.4 385 132C383.8 132.3 382.1 133.3 379.8 134C377.5 134.7 374.7 135.3 371.4 135.7C368.1 136.1 364.4 136.3 360.2 136C356.1 135.7 351.6 135 346.9 133.6C344.5 132.9 342.1 132.2 340.6 131.3C339.8 130.9 339.1 130.4 338.3 129.6L337.7 129C337.7 129 337.6 128.9 337.5 128.9C337.4 128.7 337.2 128.6 337.2 128.4C337 128.1 337 127.8 337 127.4C337 127.4 337.2 126.4 337.4 125.7L337.9 123.5C338.6 120.5 339.4 117.3 339.8 113.4C340 111.5 339.9 109.3 339.7 107.6C339.6 106.6 339.5 105.6 339.2 104.5C338.9 103.3 338.6 102 337.3 100.2C337 99.6999 336.5 99.1999 335.9 98.6999C335.6 98.4999 335 98.0999 334.7 97.8999C334.4 97.6999 334 97.5999 333.8 97.4999C332.8 97.0999 332.1 96.9999 331.4 96.8999C330.1 96.6999 329 96.6999 327.7 96.7999C327.1 96.8999 326.4 96.8999 325.7 97.0999L324.2 97.4999C323.2 97.7999 322.3 98.0999 321.5 98.4999C318.2 99.8999 315.6 101 312.6 102.1C309.7 103.1 306.8 104 304.7 104C301.1 104.1 296.7 101 293.8 95.9999C290.3 90.8999 287.5 85.4999 285.3 80.0999C283.1 74.5999 281.3 69.0999 280.3 63.6999C279.3 58.2999 278.6 52.9999 278.6 47.9999C278.5 42.9999 278.9 38.2999 279.5 34.0999C280.1 29.8999 281 25.9999 282 22.6999C282.1 22.1999 282.3 21.6999 282.5 21.1999C283.8 21.4999 285.1 21.7999 286.7 22.1999C289.3 22.6999 292.3 23.4999 295.6 23.9999C298.9 24.5999 302.5 25.1999 306.3 25.5999C310.1 25.9999 314.2 26.2999 318.4 26.3999C322.6 26.4999 326.8 26.4999 331 26.7999C335.2 26.9999 339.4 27.3999 343.5 28.2999C345.5 28.7999 347.6 29.2999 349.7 29.9999C351.8 30.5999 353.9 31.2999 355.8 32.0999L358.8 33.2999L361.7 34.6999C363.6 35.5999 365.4 36.6999 367.2 37.8999C369 38.8999 370.5 40.3999 372.1 41.5999C373.6 42.9999 375.1 44.2999 376.3 45.7999C377.5 47.2999 378.8 48.7999 379.7 50.3999C380.8 51.8999 381.6 53.5999 382.4 55.2999C383.3 56.8999 383.7 58.6999 384.3 60.2999C384.8 61.9999 385.1 63.6999 385.5 65.2999C385.7 66.9999 385.9 68.5999 386.1 70.0999C386.1 71.6999 386.2 73.1999 386.2 74.5999C386 77.4999 385.9 80.1999 385.4 82.5999C384.9 85.2999 387.2 88.5999 388.7 90.5999C390.1 92.4999 391.7 94.7999 393 97.4999C394.2 99.7999 395.2 99.8999 395.6 99.4999C398.5 96.5999 398.5 91.3999 398.5 90.8999C398.6 88.8999 398.8 86.3999 398.7 83.5999C398.8 80.7999 398.6 77.5999 398.4 74.0999C398.2 72.3999 398 70.4999 397.7 68.5999C397.3 66.6999 396.9 64.7999 396.5 62.7999C395.9 60.7999 395.3 58.7999 394.6 56.6999C393.7 54.6999 393 52.5999 391.9 50.5999C390.8 48.5999 389.7 46.4999 388.3 44.5999C387 42.5999 385.4 40.7999 383.8 38.9999C382.2 37.1999 380.3 35.5999 378.5 33.9999C376.5 32.5999 374.7 30.8999 372.5 29.6999C370.4 28.3999 368.3 27.0999 366.1 26.0999L362.8 24.4999L359.4 23.0999C357.2 22.0999 354.9 21.3999 352.6 20.6999C350.3 19.8999 348 19.2999 345.6 18.6999C340.9 17.5999 336.1 17.0999 331.7 16.6999C327.4 16.3999 323.1 16.0999 319.1 15.7999C315.2 15.4999 311.5 14.9999 308 14.3999C304.6 13.7999 301.4 12.9999 298.5 12.0999C295.6 11.2999 293.1 10.2999 290.8 9.39986C288.6 8.39986 286.6 7.59986 285.1 6.79986C284.8 6.69986 284.7 6.49986 284.4 6.39986C280 2.49986 272.8 -2.10014 271.1 0.899863C270 2.79986 269.5 5.39986 268.6 8.69986C268 11.6999 267.1 15.0999 266.5 19.0999C265.8 23.0999 265.3 27.5999 265 32.5999C264.7 37.5999 264.7 42.8999 265.2 48.5999C265.6 54.2999 266.6 60.2999 268 66.3999C269.4 72.4999 271.6 78.6999 274.3 84.7999C277 90.8999 280.3 96.9999 284.3 102.6C286.2 105.5 288.9 108.8 292.3 111.3C295.7 113.8 300.2 115.7 305.2 115.6C309.9 115.4 313.3 114.1 316.6 113C319.8 111.9 323.2 110.4 326 109.4C326.7 109.1 327.3 108.9 327.9 108.8L328.1 108.7C328.2 110.1 328.2 111 328.1 112.2C327.8 114.6 327.1 117.4 326.3 120.2L325.7 122.4C325.5 123.2 325.3 123.6 325 125.1C324.5 127.7 324.8 130.5 325.8 133C326.3 134.2 326.9 135.3 327.6 136.4C328 136.9 328.4 137.4 328.9 137.9L329.8 138.8C331.1 140.1 332.6 141.3 334.3 142.4C337.7 144.5 340.5 145.3 343.2 146.3C348.6 148.2 353.9 149.5 358.9 150.3C363.9 151.1 368.5 151.4 372.5 151.5C376.6 151.6 380.1 151.4 383 151.2C384.7 151.1 386.1 151 387.4 151C387.5 157.7 387 164.4 385.7 171.1C384.9 175.4 387.1 179.8 390.9 181.4C391.7 181.7 392.5 182 393.6 182.1C397.2 182.6 399.4 182.1 400.4 180.7C401.2 179.1 400 176.8 399.9 176.7Z" fill="black"/>
</g>
<mask id="mask1_15_155" style="mask-type:luminance" maskUnits="userSpaceOnUse" x="-53" y="-99" width="843" height="596">
<path d="M789.5 -98.6001H-52.4V496.7H789.5V-98.6001Z" fill="white"/>
</mask>
<g mask="url(#mask1_15_155)">
<path d="M487.5 51.3001C487 44.4001 485.6 37.5001 483.2 30.7001C483 30.0001 482.7 29.4001 482.4 28.7001V28.6001C482 27.6001 481.1 26.8001 479.9 26.5001C473.1 24.8001 466.6 24.2001 459.8 24.3001C452.3 24.6001 444.4 25.9001 437.3 29.6001C430.2 33.2001 424.3 39.3001 420.7 46.2001C417 53.1001 415.2 60.4001 414.1 67.5001C413 74.6001 412.7 81.6001 412.9 88.2001C413 93.1001 413.3 97.9001 414 103C414.2 104.7 415.5 106.2 417.2 106.6C419.5 107.2 421.9 105.8 422.5 103.4L422.6 103.1C422.9 102 423.3 100.7 423.7 99.5001C425.5 94.3001 427.7 89.6001 430.2 85.5001C432.7 81.4001 436.9 74.7001 439.5 71.9001C447.7 61.4001 467.4 47.3001 451.4 51.9001C446.4 53.4001 441.9 56.1001 438 59.6001C437.9 59.7001 437.8 59.7001 437.8 59.8001C435.4 62.0001 432.7 64.8001 429.9 68.3001C427.2 71.8001 424.4 75.9001 421.8 80.7001C421.7 80.9001 421.6 81.2001 421.4 81.4001C421.4 77.2001 421.7 72.9001 422.2 68.6001C423.1 62.1001 424.8 55.6001 427.8 49.8001C430.8 44.0001 435.3 39.4001 441.1 36.4001C446.8 33.3001 453.5 32.2001 460.2 32.0001C465.4 31.9001 470.9 32.5001 475.9 33.6001C477.9 39.6001 479 45.8001 479.3 51.6001C479.5 57.5001 478.6 63.1001 476.7 67.8001C475.8 70.2001 474.5 72.3001 473.3 74.2001C472.6 75.1001 471.8 76.0001 471.1 76.9001C470.4 77.7001 469.8 78.2001 469.1 78.7001C466.1 80.7001 462.1 81.6001 458.3 82.3001C454.3 82.9001 450.8 83.4001 447.9 83.9001C444.9 84.4001 443.2 84.6001 441.7 85.1001C437.8 86.3001 432.9 103 436.4 101.7C437.9 101.1 445 96.6001 450.5 95.4001C453.1 94.6001 456.4 93.9001 460.5 92.8001C464.5 91.7001 469.6 90.5001 474.8 86.7001C476 85.8001 477.4 84.5001 478.3 83.3001C479.2 82.1001 480.1 80.9001 481 79.7001C482.6 77.1001 484.1 74.3001 485.1 71.2001C487.2 65.0001 488 58.2001 487.5 51.3001Z" fill="black"/>
</g>
<mask id="mask2_15_155" style="mask-type:luminance" maskUnits="userSpaceOnUse" x="-53" y="-99" width="843" height="596">
<path d="M789.5 -98.6001H-52.4V496.7H789.5V-98.6001Z" fill="white"/>
</mask>
<g mask="url(#mask2_15_155)">
<path d="M275.3 360.1L275.2 366.8H255.3V377.6H273.4V384.2H255.3V400H247.7V360.1H275.3Z" fill="black"/>
</g>
<mask id="mask3_15_155" style="mask-type:luminance" maskUnits="userSpaceOnUse" x="-53" y="-99" width="843" height="596">
<path d="M789.5 -98.6001H-52.4V496.7H789.5V-98.6001Z" fill="white"/>
</mask>
<g mask="url(#mask3_15_155)">
<path d="M317.8 391.6H298.3L294.8 400H286.9L304.4 360.1H312.3L329.6 400H321.4L317.8 391.6ZM315.1 385L308.1 368.2L301 385H315.1Z" fill="black"/>
</g>
<mask id="mask4_15_155" style="mask-type:luminance" maskUnits="userSpaceOnUse" x="-53" y="-99" width="843" height="596">
<path d="M789.5 -98.6001H-52.4V496.7H789.5V-98.6001Z" fill="white"/>
</mask>
<g mask="url(#mask4_15_155)">
<path d="M372 400L365.1 388.2C364.6 388.3 364.2 388.3 363.7 388.3H354.7V400H347V360.1H363.7C374 360.1 379.9 365.1 379.9 373.8C379.9 380.1 377.1 384.6 372 386.7L380.8 399.9H372V400ZM354.6 381.6H363.6C369.3 381.6 372.5 379.1 372.5 374.1C372.5 369.2 369.3 366.8 363.6 366.8H354.6V381.6Z" fill="black"/>
</g>
<mask id="mask5_15_155" style="mask-type:luminance" maskUnits="userSpaceOnUse" x="-53" y="-99" width="843" height="596">
<path d="M789.5 -98.6001H-52.4V496.7H789.5V-98.6001Z" fill="white"/>
</mask>
<g mask="url(#mask5_15_155)">
<path d="M409.6 360.1L422.2 385.7L434.7 360.1H443.5V400H436.5L436.4 371.5L424.6 395.9H419.7L407.9 371.5V400H400.8V360.1H409.6Z" fill="black"/>
</g>
<mask id="mask6_15_155" style="mask-type:luminance" maskUnits="userSpaceOnUse" x="-53" y="-99" width="843" height="596">
<path d="M789.5 -98.6001H-52.4V496.7H789.5V-98.6001Z" fill="white"/>
</mask>
<g mask="url(#mask6_15_155)">
<path d="M479 366.7C475.4 366.7 473.1 368 473.1 370.5C473.1 378.6 494.5 374.2 494.5 388.5C494.5 396 488 400.3 479.2 400.3C472.8 400.3 466.6 397.7 462.3 393.9L465.5 387.5C469.6 391.1 475 393.4 479.3 393.4C483.6 393.4 486.1 391.8 486.1 389C486.1 380.7 464.7 385.4 464.7 371.2C464.7 364.2 470.7 359.8 479.6 359.8C484.9 359.8 490.2 361.5 494 364L490.9 370.6C486.7 368 482.1 366.7 479 366.7Z" fill="black"/>
</g>
<mask id="mask7_15_155" style="mask-type:luminance" maskUnits="userSpaceOnUse" x="-53" y="-99" width="843" height="596">
<path d="M789.5 -98.6001H-52.4V496.7H789.5V-98.6001Z" fill="white"/>
</mask>
<g mask="url(#mask7_15_155)">
<path d="M19.7 291.9C26.2 313.1 32.7 334.4 39.2 355.6C51 352 62.8 348.6 74.7 345.4C76.1 350.7 77.5 355.9 79 361.2C61 366 43.3 371.2 25.6 377C17.1 350.7 8.5 324.4 0 298.1C6.5 296 13.1 293.9 19.7 291.9Z" fill="black"/>
</g>
<mask id="mask8_15_155" style="mask-type:luminance" maskUnits="userSpaceOnUse" x="-53" y="-99" width="843" height="596">
<path d="M789.5 -98.6001H-52.4V496.7H789.5V-98.6001Z" fill="white"/>
</mask>
<g mask="url(#mask8_15_155)">
<path d="M104.1 269.4C110.2 296.4 116.4 323.3 122.5 350.3C116.3 351.7 110.1 353.2 103.9 354.7C97.3 327.8 90.7 301 84.1 274.1C90.8 272.5 97.5 270.9 104.1 269.4Z" fill="black"/>
</g>
<mask id="mask9_15_155" style="mask-type:luminance" maskUnits="userSpaceOnUse" x="-53" y="-99" width="843" height="596">
<path d="M789.5 -98.6001H-52.4V496.7H789.5V-98.6001Z" fill="white"/>
</mask>
<g mask="url(#mask9_15_155)">
<path d="M203.2 251.1C203.9 256.2 204.6 261.4 205.2 266.5C190.7 268.5 176.2 270.9 161.8 273.4C163 280.1 164.2 286.8 165.4 293.5C178.4 291.2 191.5 289.1 204.6 287.2C205.3 292.4 206.1 297.5 206.8 302.7C193.9 304.6 181 306.6 168.2 308.9C170 319.2 171.9 329.5 173.7 339.8C167.4 340.9 161.2 342.1 155 343.3C149.7 316.2 144.3 289 139 261.9C160.3 257.8 181.8 254.2 203.2 251.1Z" fill="black"/>
</g>
<mask id="mask10_15_155" style="mask-type:luminance" maskUnits="userSpaceOnUse" x="-53" y="-99" width="843" height="596">
<path d="M789.5 -98.6001H-52.4V496.7H789.5V-98.6001Z" fill="white"/>
</mask>
<g mask="url(#mask10_15_155)">
<path d="M299 241.6C299.3 246.8 299.6 251.9 299.9 257.1C284 258 268.1 259.3 252.3 260.9C252.9 266.9 253.5 272.8 254.1 278.8C268.1 277.4 282.2 276.2 296.3 275.3C296.6 280.5 297 285.6 297.3 290.8C283.4 291.7 269.6 292.8 255.7 294.2C256.3 300.3 256.9 306.4 257.5 312.5C273.1 310.9 288.7 309.7 304.4 308.8C304.7 314 305 319.1 305.3 324.3C283.6 325.6 261.8 327.5 240.2 330C237 302.5 233.7 275.1 230.5 247.6C253.2 244.9 276.1 242.9 299 241.6Z" fill="black"/>
</g>
<mask id="mask11_15_155" style="mask-type:luminance" maskUnits="userSpaceOnUse" x="-53" y="-99" width="843" height="596">
<path d="M789.5 -98.6001H-52.4V496.7H789.5V-98.6001Z" fill="white"/>
</mask>
<g mask="url(#mask11_15_155)">
<path d="M363.3 254.6C356.5 254.6 352 257 352.1 261.5C352.3 276.5 399.3 268.2 398.3 298.3C397.8 314.5 383.3 322.9 364.8 323C351 323.1 337.1 318.2 327.2 310.7C329.6 305.5 331.9 300.3 334.4 295.2C343.5 302.5 356 307.1 365 307.1C372.9 307.1 377.7 304.3 377.7 299.2C377.8 283.3 331.8 293 330.8 263.9C330.2 248.9 344 238.8 364.9 238.7C377.6 238.6 390.2 242.4 399 248C396.3 253.1 393.6 258.2 390.9 263.4C381.6 257.9 370.4 254.6 363.3 254.6Z" fill="black"/>
</g>
<mask id="mask12_15_155" style="mask-type:luminance" maskUnits="userSpaceOnUse" x="-53" y="-99" width="843" height="596">
<path d="M789.5 -98.6001H-52.4V496.7H789.5V-98.6001Z" fill="white"/>
</mask>
<g mask="url(#mask12_15_155)">
<path d="M514.6 289.9C511.4 313.7 489.8 329.3 464.4 327.1C439 324.9 420.3 306 421.2 281.9C422.1 257.8 443.8 240.6 471.5 243C499.2 245.5 517.8 266.1 514.6 289.9ZM441.4 283.1C440.6 297.7 451.9 309.7 466 310.9C480.1 312.1 492.9 302.1 494.5 287.6C496.1 273.1 485.3 260.7 470.4 259.4C455.3 258.2 442.2 268.5 441.4 283.1Z" fill="black"/>
</g>
<mask id="mask13_15_155" style="mask-type:luminance" maskUnits="userSpaceOnUse" x="-53" y="-99" width="843" height="596">
<path d="M789.5 -98.6001H-52.4V496.7H789.5V-98.6001Z" fill="white"/>
</mask>
<g mask="url(#mask13_15_155)">
<path d="M566.9 255.7C578.5 275.6 589.3 295.7 599.5 316C603.1 298.6 606.6 281.2 610.2 263.8C616.6 265.1 622.9 266.4 629.2 267.8L611.3 348.8C605.6 347.5 600 346.3 594.3 345.2C584.5 325.1 574 305.1 562.9 285.2C560 302.7 557.1 320.2 554.1 337.7C548.1 336.7 542.1 335.7 536.1 334.8C540.2 307.5 544.3 280.1 548.4 252.8C554.6 253.7 560.7 254.6 566.9 255.7Z" fill="black"/>
</g>
<mask id="mask14_15_155" style="mask-type:luminance" maskUnits="userSpaceOnUse" x="-53" y="-99" width="843" height="596">
<path d="M789.5 -98.6001H-52.4V496.7H789.5V-98.6001Z" fill="white"/>
</mask>
<g mask="url(#mask14_15_155)">
<path d="M710.7 331.7C716.2 333.4 721.7 335.1 727.2 336.9C723.9 347 720.6 357.1 717.4 367.2C706.8 370.5 692.4 370.6 681.1 367.3C656.6 360.2 642 337.9 647.6 314.5C653.2 291.2 678.2 278.6 705.7 286.6C718.7 290.4 730.6 299.1 737 308.9C732 312 727 315.1 722 318.2C717.4 310.8 709.5 304.7 701.1 302.2C685.7 297.7 670.9 305.5 667.2 319.6C663.5 333.8 672.1 347.7 686.7 352C691.7 353.4 698.1 353.5 704.2 352.5C706.4 345.6 708.5 338.7 710.7 331.7Z" fill="black"/>
</g>
</g>
<defs>
<clipPath id="clip0_15_155">
<rect width="737.1" height="400" fill="white"/>
</clipPath>
</defs>
</svg>
